# xmcd
#
# Track frame offsets:
#	150
#	15372
#	34650
#	53250
#	70797
#	89247
#	106050
#	123597
#	142497
#	165745
#	184797
#
# Disc length: 2713 seconds
#
# Revision: 1
# Processed by: cddbd v1.5.1PL0 Copyright (c) Steve Scherf et al.
# Submitted via: audiograbber 1.83.01
#
DISCID=920a970b
DTITLE=Rolf Gubler and Band - Du kennsch mi nid
DYEAR=1900
DGENRE=
TTITLE0=Du kennsch mi nid
TTITLE1=Elei
TTITLE2=Silberstreife
TTITLE3=Rägetropfe
TTITLE4=Säg, werum ?
TTITLE5=I weiss nid
TTITLE6=Murtesee
TTITLE7=Haar usem Herbscht
TTITLE8=Haguhans im Blitzloch-Blues
TTITLE9=Es tuet mer leid
TTITLE10=Mänge Wäg
EXTD=
EXTT0=
EXTT1=
EXTT2=
EXTT3=
EXTT4=
EXTT5=
EXTT6=
EXTT7=
EXTT8=
EXTT9=
EXTT10=
PLAYORDER=
